<?xml version="1.0" encoding="UTF-8"?>
<svg xmlns="http://www.w3.org/2000/svg" xmlns:xlink="http://www.w3.org/1999/xlink" width="50px" height="50px" viewBox="0 0 50 50" version="1.1">
<defs>
<linearGradient id="linear0" gradientUnits="userSpaceOnUse" x1="-579.075" y1="20.292" x2="-579.075" y2="-3.336" gradientTransform="matrix(-2.777778,0,0,2.777778,-1583.541667,0)">
<stop offset="0" style="stop-color:rgb(0%,47.058824%,83.137255%);stop-opacity:1;"/>
<stop offset="1" style="stop-color:rgb(51.372549%,72.54902%,97.647059%);stop-opacity:1;"/>
</linearGradient>
<filter id="alpha" filterUnits="objectBoundingBox" x="0%" y="0%" width="100%" height="100%">
  <feColorMatrix type="matrix" in="SourceGraphic" values="0 0 0 0 1 0 0 0 0 1 0 0 0 0 1 0 0 0 1 0"/>
</filter>
<mask id="mask0">
  <g filter="url(#alpha)">
<rect x="0" y="0" width="50" height="50" style="fill:rgb(0%,0%,0%);fill-opacity:0.901961;stroke:none;"/>
  </g>
</mask>
<clipPath id="clip1">
  <rect x="0" y="0" width="50" height="50"/>
</clipPath>
<g id="surface5" clip-path="url(#clip1)">
<path style=" stroke:none;fill-rule:nonzero;fill:rgb(100%,100%,100%);fill-opacity:1;" d="M 14.339844 27.304688 C 14.292969 27.273438 14.234375 27.265625 14.1875 27.292969 L 9.484375 29.957031 C 9.34375 30.035156 9.4375 30.359375 9.632812 30.46875 L 12.132812 31.660156 L 12.289062 31.75 C 12.417969 31.835938 12.496094 31.972656 12.503906 32.128906 L 12.480469 37.777344 C 12.503906 38.203125 12.726562 38.597656 13.082031 38.832031 L 14.945312 39.945312 C 15.292969 40.140625 15.566406 39.988281 15.570312 39.601562 L 15.589844 33.925781 C 15.589844 33.785156 15.683594 33.730469 15.804688 33.800781 L 15.960938 33.890625 L 18.871094 35.671875 C 19.066406 35.785156 19.164062 35.570312 19.027344 35.332031 L 14.492188 27.464844 C 14.453125 27.402344 14.402344 27.34375 14.339844 27.304688 Z M 14.339844 27.304688 "/>
</g>
<mask id="mask1">
  <g filter="url(#alpha)">
<rect x="0" y="0" width="50" height="50" style="fill:rgb(0%,0%,0%);fill-opacity:0.501961;stroke:none;"/>
  </g>
</mask>
<clipPath id="clip2">
  <rect x="0" y="0" width="50" height="50"/>
</clipPath>
<g id="surface8" clip-path="url(#clip2)">
<path style=" stroke:none;fill-rule:nonzero;fill:rgb(100%,100%,100%);fill-opacity:1;" d="M 11.195312 17.035156 L 32.308594 4.207031 L 38.929688 8.023438 L 17.816406 20.859375 L 17.816406 24.921875 C 17.816406 25.050781 17.738281 25.164062 17.617188 25.207031 C 17.496094 25.253906 17.363281 25.214844 17.28125 25.117188 L 14.480469 21.785156 C 14.402344 21.691406 14.28125 21.652344 14.167969 21.683594 L 11.5625 22.238281 C 11.476562 22.257812 11.382812 22.234375 11.308594 22.179688 C 11.238281 22.121094 11.199219 22.035156 11.195312 21.945312 Z M 11.195312 17.035156 "/>
</g>
</defs>
<g id="surface1">
<path style=" stroke:none;fill-rule:nonzero;fill:url(#linear0);" d="M 3.359375 12.496094 L 25.015625 0 L 46.667969 12.496094 L 46.667969 37.503906 L 25.015625 50 L 3.332031 37.503906 L 3.332031 12.582031 Z M 3.359375 12.496094 "/>
<path style=" stroke:none;fill-rule:nonzero;fill:rgb(0%,47.058824%,83.137255%);fill-opacity:1;" d="M 3.390625 12.542969 L 24.996094 24.964844 L 24.996094 49.960938 L 3.359375 37.492188 L 3.359375 12.628906 Z M 3.390625 12.542969 "/>
<use xlink:href="#surface5" mask="url(#mask0)"/>
<use xlink:href="#surface8" mask="url(#mask1)"/>
</g>
</svg>
