<?xml version="1.0" encoding="UTF-8"?>
<svg xmlns="http://www.w3.org/2000/svg" xmlns:xlink="http://www.w3.org/1999/xlink" width="50px" height="50px" viewBox="0 0 50 50" version="1.1">
<defs>
<linearGradient id="linear0" gradientUnits="userSpaceOnUse" x1="64" y1="128" x2="64" y2="0.00000143492" gradientTransform="matrix(0.390625,0,0,0.390625,0,0)">
<stop offset="0" style="stop-color:rgb(11.372549%,29.019608%,47.45098%);stop-opacity:1;"/>
<stop offset="1" style="stop-color:rgb(27.058824%,79.215686%,94.901961%);stop-opacity:1;"/>
</linearGradient>
<filter id="alpha" filterUnits="objectBoundingBox" x="0%" y="0%" width="100%" height="100%">
  <feColorMatrix type="matrix" in="SourceGraphic" values="0 0 0 0 1 0 0 0 0 1 0 0 0 0 1 0 0 0 1 0"/>
</filter>
<mask id="mask0">
  <g filter="url(#alpha)">
<rect x="0" y="0" width="50" height="50" style="fill:rgb(0%,0%,0%);fill-opacity:0.701961;stroke:none;"/>
  </g>
</mask>
<clipPath id="clip1">
  <rect x="0" y="0" width="50" height="50"/>
</clipPath>
<g id="surface5" clip-path="url(#clip1)">
<path style="fill-rule:nonzero;fill:rgb(8.235294%,41.568627%,70.196078%);fill-opacity:1;stroke-width:0.5;stroke-linecap:butt;stroke-linejoin:round;stroke:rgb(0%,47.058824%,83.137255%);stroke-opacity:1;stroke-miterlimit:10;" d="M 118.8 32.3 L 118.8 95.8 L 64 127.5 L 64 64 Z M 118.8 32.3 " transform="matrix(0.390625,0,0,0.390625,0,0)"/>
<path style="fill-rule:nonzero;fill:rgb(11.372549%,29.019608%,47.45098%);fill-opacity:1;stroke-width:0.5;stroke-linecap:butt;stroke-linejoin:round;stroke:rgb(0%,47.058824%,83.137255%);stroke-opacity:1;stroke-miterlimit:10;" d="M 118.8 32.3 L 64 64 L 9.2 32.3 L 64 0.5 Z M 118.8 32.3 " transform="matrix(0.390625,0,0,0.390625,0,0)"/>
<path style="fill-rule:nonzero;fill:rgb(9.411765%,35.294118%,59.215686%);fill-opacity:1;stroke-width:0.5;stroke-linecap:butt;stroke-linejoin:round;stroke:rgb(0%,47.058824%,83.137255%);stroke-opacity:1;stroke-miterlimit:10;" d="M 64 64 L 64 127.5 L 9.2 95.8 L 9.2 32.3 Z M 64 64 " transform="matrix(0.390625,0,0,0.390625,0,0)"/>
<path style="fill-rule:nonzero;fill:rgb(11.372549%,29.019608%,47.45098%);fill-opacity:1;stroke-width:0.5;stroke-linecap:butt;stroke-linejoin:round;stroke:rgb(0%,47.058824%,83.137255%);stroke-opacity:1;stroke-miterlimit:10;" d="M 9.2 95.8 L 64 64 L 64 127.5 Z M 9.2 95.8 " transform="matrix(0.390625,0,0,0.390625,0,0)"/>
<path style="fill-rule:nonzero;fill:rgb(9.411765%,35.294118%,59.215686%);fill-opacity:1;stroke-width:0.5;stroke-linecap:butt;stroke-linejoin:round;stroke:rgb(0%,47.058824%,83.137255%);stroke-opacity:1;stroke-miterlimit:10;" d="M 118.8 95.8 L 64 64 L 64 127.5 Z M 118.8 95.8 " transform="matrix(0.390625,0,0,0.390625,0,0)"/>
</g>
<mask id="mask1">
  <g filter="url(#alpha)">
<rect x="0" y="0" width="50" height="50" style="fill:rgb(0%,0%,0%);fill-opacity:0.301961;stroke:none;"/>
  </g>
</mask>
<clipPath id="clip2">
  <rect x="0" y="0" width="50" height="50"/>
</clipPath>
<g id="surface8" clip-path="url(#clip2)">
<path style=" stroke:none;fill-rule:nonzero;fill:rgb(100%,100%,100%);fill-opacity:1;" d="M 14.84375 36.25 C 14.84375 36.25 10.117188 34.921875 10.117188 30.703125 C 10.117188 27.109375 15 26.289062 15 26.289062 L 33.945312 26.5625 C 33.945312 26.5625 40 27.265625 40 32.8125 C 40 38.28125 33.945312 39.023438 33.945312 39.023438 Z M 14.84375 36.25 "/>
</g>
<mask id="mask2">
  <g filter="url(#alpha)">
<rect x="0" y="0" width="50" height="50" style="fill:rgb(0%,0%,0%);fill-opacity:0.301961;stroke:none;"/>
  </g>
</mask>
<clipPath id="clip3">
  <rect x="0" y="0" width="50" height="50"/>
</clipPath>
<g id="surface11" clip-path="url(#clip3)">
<path style=" stroke:none;fill-rule:nonzero;fill:rgb(100%,100%,100%);fill-opacity:1;" d="M 19.53125 31.25 C 19.53125 33.839844 17.433594 35.9375 14.84375 35.9375 C 12.253906 35.9375 10.15625 33.839844 10.15625 31.25 C 10.15625 28.660156 12.253906 26.5625 14.84375 26.5625 C 17.433594 26.5625 19.53125 28.660156 19.53125 31.25 Z M 19.53125 31.25 "/>
</g>
<mask id="mask3">
  <g filter="url(#alpha)">
<rect x="0" y="0" width="50" height="50" style="fill:rgb(0%,0%,0%);fill-opacity:0.2;stroke:none;"/>
  </g>
</mask>
<clipPath id="clip4">
  <rect x="0" y="0" width="50" height="50"/>
</clipPath>
<g id="surface14" clip-path="url(#clip4)">
<path style=" stroke:none;fill-rule:nonzero;fill:rgb(100%,100%,100%);fill-opacity:1;" d="M 22.96875 13.632812 L 25.15625 15.039062 L 20.546875 26.71875 L 13.242188 26.5625 Z M 22.96875 13.632812 "/>
</g>
<mask id="mask4">
  <g filter="url(#alpha)">
<rect x="0" y="0" width="50" height="50" style="fill:rgb(0%,0%,0%);fill-opacity:0.301961;stroke:none;"/>
  </g>
</mask>
<clipPath id="clip5">
  <rect x="0" y="0" width="50" height="50"/>
</clipPath>
<g id="surface17" clip-path="url(#clip5)">
<path style=" stroke:none;fill-rule:nonzero;fill:rgb(100%,100%,100%);fill-opacity:1;" d="M 32.03125 35.9375 L 35.15625 35.9375 C 35.3125 35.9375 35.429688 35.859375 35.507812 35.742188 L 37.070312 33.007812 C 37.148438 32.890625 37.148438 32.734375 37.070312 32.617188 L 35.507812 29.882812 C 35.429688 29.765625 35.3125 29.6875 35.15625 29.6875 L 32.03125 29.6875 C 31.875 29.6875 31.757812 29.765625 31.679688 29.882812 L 30.117188 32.617188 C 30.039062 32.734375 30.039062 32.890625 30.117188 33.007812 L 31.679688 35.742188 C 31.757812 35.859375 31.875 35.9375 32.03125 35.9375 Z M 32.03125 35.9375 "/>
</g>
</defs>
<g id="surface1">
<path style=" stroke:none;fill-rule:nonzero;fill:url(#linear0);" d="M 25 0 L 3.4375 12.5 L 3.4375 37.5 L 25 50 L 46.5625 37.5 L 46.5625 12.5 Z M 25 0 "/>
<use xlink:href="#surface5" mask="url(#mask0)"/>
<path style=" stroke:none;fill-rule:nonzero;fill:rgb(11.372549%,29.019608%,47.45098%);fill-opacity:1;" d="M 34.179688 25.820312 C 33.984375 25.78125 33.789062 25.78125 33.59375 25.78125 L 21.445312 25.78125 L 25 16.835938 C 25.039062 16.835938 25.234375 16.914062 25.390625 16.914062 C 25.46875 16.914062 25.546875 16.914062 25.625 16.875 L 29.375 15.664062 C 29.492188 15.625 29.609375 15.546875 29.726562 15.429688 L 32.1875 12.695312 L 32.109375 11.601562 L 31.523438 11.09375 L 28.671875 14.257812 L 25.546875 15.273438 L 23.28125 13.242188 L 23.945312 10.039062 L 26.796875 6.875 L 26.210938 6.328125 L 25.117188 6.40625 L 22.65625 9.140625 C 22.578125 9.257812 22.5 9.375 22.460938 9.492188 L 21.640625 13.320312 C 21.601562 13.59375 21.679688 13.867188 21.875 14.0625 C 21.875 14.0625 21.484375 14.179688 21.40625 14.296875 L 11.757812 26.757812 C 10.46875 27.65625 9.53125 29.101562 9.414062 30.78125 C 9.296875 32.226562 9.765625 33.632812 10.703125 34.765625 C 11.601562 35.820312 12.8125 36.445312 14.179688 36.640625 L 32.539062 39.726562 L 32.539062 39.6875 C 32.734375 39.726562 32.890625 39.765625 33.085938 39.804688 C 33.28125 39.804688 33.476562 39.84375 33.671875 39.84375 C 37.304688 39.84375 40.351562 37.070312 40.664062 33.398438 C 40.9375 29.53125 38.046875 26.132812 34.179688 25.820312 Z M 34.179688 25.820312 "/>
<use xlink:href="#surface8" mask="url(#mask1)"/>
<use xlink:href="#surface11" mask="url(#mask2)"/>
<use xlink:href="#surface14" mask="url(#mask3)"/>
<use xlink:href="#surface17" mask="url(#mask4)"/>
<path style="fill:none;stroke-width:4;stroke-linecap:butt;stroke-linejoin:round;stroke:rgb(100%,100%,100%);stroke-opacity:1;stroke-miterlimit:10;" d="M 50 80 C 50 86.63 44.63 92 38 92 C 31.37 92 26 86.63 26 80 C 26 73.37 31.37 68 38 68 C 44.63 68 50 73.37 50 80 Z M 50 80 " transform="matrix(0.390625,0,0,0.390625,0,0)"/>
<path style=" stroke:none;fill-rule:nonzero;fill:rgb(100%,100%,100%);fill-opacity:1;" d="M 14.0625 32.8125 L 15.625 32.8125 C 15.703125 32.8125 15.742188 32.773438 15.78125 32.695312 L 16.5625 31.328125 C 16.601562 31.25 16.601562 31.210938 16.5625 31.132812 L 15.78125 29.765625 C 15.78125 29.726562 15.703125 29.6875 15.625 29.6875 L 14.0625 29.6875 C 13.984375 29.6875 13.945312 29.726562 13.90625 29.804688 L 13.125 31.171875 C 13.085938 31.25 13.085938 31.289062 13.125 31.367188 L 13.90625 32.734375 C 13.90625 32.773438 13.984375 32.8125 14.0625 32.8125 Z M 14.0625 32.8125 "/>
<path style=" stroke:none;fill-rule:nonzero;fill:rgb(100%,100%,100%);fill-opacity:1;" d="M 33.59375 25.78125 L 33.59375 27.34375 C 33.75 27.34375 33.90625 27.34375 34.0625 27.34375 C 35.507812 27.460938 36.835938 28.125 37.773438 29.257812 C 38.710938 30.390625 39.179688 31.796875 39.0625 33.242188 C 38.828125 36.09375 36.40625 38.28125 33.59375 38.28125 C 33.4375 38.28125 33.28125 38.28125 33.125 38.28125 C 31.679688 38.164062 30.351562 37.5 29.414062 36.367188 C 28.476562 35.234375 28.007812 33.828125 28.125 32.382812 C 28.359375 29.53125 30.78125 27.34375 33.59375 27.34375 L 33.59375 25.78125 M 33.59375 25.78125 C 29.960938 25.78125 26.914062 28.554688 26.601562 32.226562 C 26.289062 36.09375 29.179688 39.492188 33.046875 39.804688 C 33.242188 39.804688 33.4375 39.84375 33.632812 39.84375 C 37.265625 39.84375 40.3125 37.070312 40.625 33.398438 C 40.9375 29.53125 38.046875 26.132812 34.179688 25.820312 C 33.984375 25.78125 33.789062 25.78125 33.59375 25.78125 Z M 33.59375 25.78125 "/>
<path style=" stroke:none;fill-rule:nonzero;fill:rgb(100%,100%,100%);fill-opacity:1;" d="M 34.960938 30.46875 L 36.328125 32.8125 L 34.960938 35.15625 L 32.265625 35.15625 L 30.898438 32.8125 L 32.265625 30.46875 L 34.960938 30.46875 M 35.15625 29.6875 L 32.03125 29.6875 C 31.875 29.6875 31.757812 29.765625 31.679688 29.882812 L 30.117188 32.617188 C 30.039062 32.734375 30.039062 32.890625 30.117188 33.007812 L 31.679688 35.742188 C 31.757812 35.859375 31.875 35.9375 32.03125 35.9375 L 35.15625 35.9375 C 35.3125 35.9375 35.429688 35.859375 35.507812 35.742188 L 37.070312 33.007812 C 37.148438 32.890625 37.148438 32.734375 37.070312 32.617188 L 35.507812 29.882812 C 35.429688 29.765625 35.3125 29.6875 35.15625 29.6875 Z M 35.15625 29.6875 "/>
<path style="fill:none;stroke-width:4;stroke-linecap:butt;stroke-linejoin:miter;stroke:rgb(100%,100%,100%);stroke-opacity:1;stroke-miterlimit:10;" d="M 36.5 91.9 L 83.5 99.8 " transform="matrix(0.390625,0,0,0.390625,0,0)"/>
<path style="fill:none;stroke-width:4;stroke-linecap:butt;stroke-linejoin:miter;stroke:rgb(100%,100%,100%);stroke-opacity:1;stroke-miterlimit:10;" d="M 86 68 L 38 68 " transform="matrix(0.390625,0,0,0.390625,0,0)"/>
<path style="fill:none;stroke-width:4;stroke-linecap:butt;stroke-linejoin:round;stroke:rgb(100%,100%,100%);stroke-opacity:1;stroke-miterlimit:10;" d="M 31.6 69.8 L 56.5 37.9 C 57.5 36.7 59.3 36.5 60.5 37.5 L 61.7 38.6 C 62.6 39.3 62.8 40.5 62.4 41.6 L 52 68 " transform="matrix(0.390625,0,0,0.390625,0,0)"/>
<path style="fill-rule:nonzero;fill:rgb(100%,100%,100%);fill-opacity:1;stroke-width:1;stroke-linecap:butt;stroke-linejoin:miter;stroke:rgb(100%,100%,100%);stroke-opacity:1;stroke-miterlimit:10;" d="M 82.5 29.5 L 81 28.1 L 73.7 36.2 L 65.7 38.8 L 60 33.6 L 61.7 25.4 L 69 17.3 L 67.4 16 L 64.6 16.2 L 58.3 23.2 C 58.1 23.5 57.9 23.8 57.8 24.1 L 55.7 33.9 C 55.6 34.6 55.8 35.3 56.3 35.8 L 63.8 42.5 C 64.2 42.8 64.6 43 65.1 43 C 65.3 43 65.5 43 65.7 42.9 L 75.3 39.8 C 75.6 39.7 75.9 39.5 76.2 39.2 L 82.5 32.2 Z M 82.5 29.5 " transform="matrix(0.390625,0,0,0.390625,0,0)"/>
</g>
</svg>
